<svg xmlns="http://www.w3.org/2000/svg" version="1.1" xmlns:xlink="http://www.w3.org/1999/xlink" xmlns:svgjs="http://svgjs.dev/svgjs" width="1000" height="1000" viewBox="0 0 1000 1000"><g transform="matrix(0.7,0,0,0.7,150.00000546874986,106.25)"><svg viewBox="0 0 320 360" data-background-color="#ffffff" preserveAspectRatio="xMidYMid meet" height="1125" width="1000" xmlns="http://www.w3.org/2000/svg" xmlns:xlink="http://www.w3.org/1999/xlink"><g id="tight-bounds" transform="matrix(1,0,0,1,0.0000025000000505315256,0)"><svg viewBox="0 0 320 360" height="360" width="320"><g><svg></svg></g><g><svg viewBox="0 0 320 360" height="360" width="320"><g><path transform="translate(-19.44751,3.1739) scale(3.53591,3.53591)" d="M67.6 10.7c0.2 0 1.8 0.8 2.7 1.1-0.3 0.1-1-0.2-1.8-0.5 0.2 0 0.6 0.1 1 0.3-0.2-0.2-1.7-0.7-1.9-0.9M52.7 7.6c0.3-0.1 3.8 0.4 5.4 0.5 0.1-0.1-0.2-0.1-0.6-0.2 0.5-0.1 1.5 0.2 2.2 0.3-2.1 0.1-4.4-0.5-6.4-0.3-0.7 0-0.2-0.2-0.6-0.3M49.8 7.6c1.8 0 3.2 0 0.6 0.2-0.3-0.1-0.7-0.1-0.6-0.2M78.1 15.9c0.2 0 1 0.9 1.4 1.2-0.1 0.1-0.9-0.7-1.3-1 0.1 0.1 0 0-0.1-0.2M76.1 14.6c-0.8-0.7-1.1-0.7-1.2-1.1 0.7 0.4 1.2 0.8 1.2 1.1M63.2 8.3c0.1-0.1 0.3 0.1 0.8 0.2-0.6-0.1-0.5 0-0.3 0.2-0.7-0.1-0.9-0.2-0.7-0.4 0.4 0.2 0.5 0.1 0.2 0M34.8 9.5c0-0.1 0.4-0.3 0.7-0.4-0.3 0.2-0.2 0.3 0.3 0.1 0 0.1-0.6 0.3-1 0.5 0.2-0.1 0.4-0.4 0-0.2M65.2 7.3c-0.3 0.1-1.4-0.5-2.5-0.7-0.6-0.2 2.4 0.5 2.5 0.7M6.2 56.7c0.6 2.5 0.2 2.4 0 0M6.3 41.7c0.1-0.4 0.2-1.5 0.3-1.4-0.3 2.4-0.8 3.5-0.9 5.3 0.3-1.6-0.1 0.9-0.2 1.5 0.1 0.8 0.1-0.5 0.3-0.3 0.2 0.3-0.4 4.5-0.2 2.2-0.2 2.1 0 4.4 0.4 5-0.5 3.2 2 10.4 2.5 11.9 0.1 0.1 0-0.5 0.2-0.1 0.2 1.3 1.1 2.2 1.4 3.6 0.3 0.4 1.5 2.6 1.7 3.1 0.4 0.8 0.6 0.7 1 1.5 1.2 2.3 3.1 4.5 4.9 6.6 5.8 6.8 14.7 12.4 24.6 14.4 9.9 2.1 20.3 0.6 28.4-3.3 0.5-0.3 0.4-0.4 1-0.6 2.8-0.9 6.2-3.8 8.1-4.9 0.9-1 3.3-2.7 3.6-3.7 1.7-1.4 3.4-3.7 4.3-5.2 0.5-0.8 0.9-0.8 1.1-1.3-0.1 0 1.6-2.1 2.1-3.3-0.2 0-0.5 0.6-0.5 0 3.6-6.9 5.6-16.2 4.5-22.6 0.2 7.9-1.8 16.7-5.6 22.3-1.7 3.6-5.2 7.5-8.4 10.3-0.5 0.5-1 1.1-1.6 1.5-1.9 1.6-4 2.9-6.2 4.1-5.2 2.9-11 5.4-17.8 5.5 11.7-1 22.2-6.9 28-14.1-4.4 4.3-6.3 6-11.2 8.5-0.4 0.7-3.7 2.1-5.9 2.7 1.3-0.6 4-1.6 4.9-2.4-7.3 3.5-15.4 5.5-23 4.4 2.9 0 7 0.1 10.9-0.6 0.6-0.2 0.9-0.4 1.6-0.5 7.6-1.7 14.9-5.4 20.1-10.6-3 2.7-7.5 5.9-10.4 6.9 2.7-1.5 7.6-4.4 9.2-6.6-3.2 3.2-9.2 6.4-13 7.8-0.6 0.1 0.4-0.4-0.6 0-1.2 0.3-0.7 0.3-1 0.5-4.6 1.3-9.9 2.4-14.3 2-0.8-0.1-1.1-0.3-1.8-0.3-0.8-0.1-1.5-0.1-2.4-0.1-3.5-0.4-7.3-1.8-10.1-3-1.5-0.7-3-1.2-4.5-2.1-1.2-0.7-2.2-1.5-3.2-2.3-3.8-2.8-7-5.6-10-9.6-5.4-7.5-8.2-16.9-7.8-26.2 0.4-9.3 4.1-18.4 10-25.1-0.3 0.3 0.4-0.7 1-1.3 0 0.2-0.1 0.5 0.6-0.2 0.6-0.7-0.2-0.2 0.1-0.6 6.2-6.8 17-12.3 28.1-12.5 0.4-0.3 1.1-0.7 1.9-0.5 0 0.1-0.5 0.1-0.5 0.1 1.1-0.1 2.1-0.1 2.6 0.1 0.1-0.1-0.4-0.2 0-0.2 0.7 0.2 0.9 0 1.3 0.2-0.3 0-0.6 0-0.8 0.1 2.5 0 4.1 0.6 6.6 0.8-1.3-0.3-1.6-0.3-2.6-0.6 1.1 0.2 1.6 0.4 2.1 0.3-0.2 0-0.1-0.3 0.1-0.2 2 0.5 2.2 0.7 4.3 1.4 0.2-0.2-0.9-0.3-1.2-0.6 2 0.7 3.8 1.2 5 2-0.4-0.3-1.6-0.7-2.5-1.1-0.1 0.1 0.3 0.2 0.4 0.4-1-0.5-2.4-1-3.8-1.2 1.2 0.3 2 0.7 2.5 0.9-1.1-0.2-2.5-0.9-4.1-1.2 2.6 0.8 7.5 2.6 10.5 4.2-1.1-0.7-2.4-1.2-3.1-1.6 0.6 0.1 1.3 0.5 1.3 0.3 0.7 0.3 1.6 1 2.1 1.1-0.9-0.6-2.7-1.5-3.3-1.8 7.5 3.4 14.2 9.1 18.5 16.4 0.4 0.7 1 2.3 1.5 2.5-0.1-0.5-0.5-0.8-0.9-1.6 0.2 0 0.2-0.3 0-0.6-0.4-0.5 0 0.4-0.4-0.1-1.8-3.3-4-6.2-7.4-9.4 1.9 1.8 0.5 0.5 0.1-0.1 2.6 2.3 5.6 6.2 6.9 8.2-0.2-0.3-0.3-0.5-0.2-0.5 2.4 4.1 3.9 7.8 5.4 13.1 0.1 0.1 0-0.4 0.2-0.1 1 4.2 1.3 7.7 1.2 10.9 0.8-5.4-1-13.8-4.2-20.4-0.4-0.8-0.4-0.2-0.8-1.1 0-0.3-0.3-0.9-0.5-1.3-4-6.6-8.9-11.3-14.7-15 0.4 0.2 1.2 0.8 1.2 0.7-10.8-7.1-23.3-8.1-33.6-5.9-0.7 0.3-1 0.6-1.8 1 1.5-0.5 2.4-0.6 3.8-0.9 0.3-0.3-1.3 0.1-0.6-0.2 0.1 0.1 1.4-0.2 1.7-0.1 0 0.1-0.4 0.2-0.5 0.3 3.3-0.7 6.7-0.8 9.6-0.6-1.7 0.1-4.8-0.2-5.8 0.3 1-0.1 2.4-0.2 3.3-0.1-1.2 0-3.4 0.1-4.4 0.2-0.1-0.1 1.6-0.3 0.5-0.3-0.5 0.1-1.3 0.1-1.6 0.4-8.6 0.8-17 5.3-22.9 10.6-1.2 1-2.6 2.1-3.5 3.2-2.2 2.5-3.6 5-5.2 7.2 1-2.1 3.2-5.3 5.8-8 2.6-2.7 5.4-5 6.9-6.2 0 0.4 2.4-1.5 3.3-2.1-0.6 0.5 0.4-0.2 0.6-0.1 3.2-1.9 5.8-2.6 8.7-3.7-0.7 0.2-1.3 0.4-1.4 0.3 0.7-0.2 1.1-0.4 1-0.5-2.8 0.8-7.2 2.7-10.7 4.8 6.3-4.3 14.3-6.9 22.2-7 7.9-0.2 15.6 1.8 21.7 5 4.1 1.8 8 5.1 11.1 8.3 0.9 0.8 0.2-0.2 1.5 1.2-0.4-0.2-0.7-0.4-0.2 0.2 0.8 0.9-0.2-0.7 1.1 0.9-0.1 0-0.5-0.5-0.5-0.3 3.5 3.1 6.2 8.7 7.8 12.4-0.4-1.5-1.4-3.6-2.2-5.1 2.4 4.4 3.2 7 4.2 10.9 0.4 0.3-0.2-1.4 0.2-0.6 0.1 0.6 0.2 2.5 0.6 2.8-0.3-1.9-0.8-4.2-1.2-4.6 0.3 0.2-0.5-2.3-1-2.9-0.2-1.6-1.6-4.4-2.8-6.5-4.3-8.4-12-15.3-20.6-19.1 0-0.2-0.5-0.4-0.7-0.6-8.5-3.6-18.7-4.6-28.5-2.3-9.9 2.4-19.2 8.1-25.8 16.3 0.3-1 2.8-2.9 2.9-3.7-2.9 3.1-6 7.2-8.1 11.6-2.2 4.4-3.4 8.9-3.9 12.2" fill="#ffffff" fill-rule="nonzero" stroke="none" stroke-width="1" stroke-linecap="butt" stroke-linejoin="miter" stroke-miterlimit="10" stroke-dasharray="" stroke-dashoffset="0" font-family="none" font-weight="none" font-size="none" text-anchor="none" style="mix-blend-mode: normal" data-fill-palette-color="tertiary"></path></g><g transform="matrix(1,0,0,1,80.37753787547702,90)"><svg viewBox="0 0 159.24492424904597 180" height="180" width="159.24492424904597"><g><svg viewBox="0 0 224.00000000000003 253.1948832286977" height="180" width="159.24492424904597"><g><svg viewBox="0 0 224.00000000000003 190.3247400056565" height="190.3247400056565" width="224.00000000000003"><g id="textblocktransform"><svg viewBox="0 0 224.00000000000003 190.3247400056565" height="190.3247400056565" width="224.00000000000003" id="textblock"><g><svg viewBox="0 0 224.00000000000003 114.98774333093006" height="114.98774333093006" width="224.00000000000003"><g transform="matrix(1,0,0,1,0,0)"><svg width="224.00000000000003" viewBox="0 -35 69.35 35.6" height="114.98774333093006" data-palette-color="#30017e"><path d="M17.85 0.6L17.85 0.6Q15.4 0.6 13.45-0.53 11.5-1.65 10.65-4.05L10.65-4.05 0-35 9.05-35 17.15-7.9Q17.25-7.6 17.43-7.45 17.6-7.3 17.85-7.3L17.85-7.3Q18.1-7.3 18.28-7.45 18.45-7.6 18.55-7.9L18.55-7.9 26.8-35 35.65-35 25.05-4.05Q24.2-1.7 22.25-0.55 20.3 0.6 17.85 0.6ZM59.6 0L38.7 0 38.7-35 59-35Q61.6-35 63.72-33.85 65.85-32.7 67.12-30.65 68.4-28.6 68.4-25.8L68.4-25.8Q68.4-24.15 67.77-22.65 67.15-21.15 66.02-20 64.9-18.85 63.45-18.15L63.45-18.15Q65.15-17.45 66.47-16.15 67.8-14.85 68.57-13.15 69.35-11.45 69.35-9.5L69.35-9.5Q69.35-6.65 68.02-4.5 66.7-2.35 64.5-1.18 62.3 0 59.6 0L59.6 0ZM47.1-14.35L47.1-6.95 57.4-6.95Q58.45-6.95 59.27-7.45 60.1-7.95 60.6-8.8 61.1-9.65 61.1-10.65L61.1-10.65Q61.1-11.7 60.6-12.53 60.1-13.35 59.27-13.85 58.45-14.35 57.4-14.35L57.4-14.35 47.1-14.35ZM47.1-28L47.1-21.05 56.55-21.05Q57.55-21.05 58.32-21.53 59.1-22 59.55-22.78 60-23.55 60-24.5L60-24.5Q60-25.5 59.55-26.28 59.1-27.05 58.32-27.53 57.55-28 56.55-28L56.55-28 47.1-28Z" opacity="1" transform="matrix(1,0,0,1,0,0)" fill="#ffffff" class="wordmark-text-0" data-fill-palette-color="primary" id="text-0"></path></svg></g></svg></g><g transform="matrix(1,0,0,1,92.48960000000002,142.1335898255227)"><svg viewBox="0 0 131.5104 48.19115018013382" height="48.19115018013382" width="131.5104"><g transform="matrix(1,0,0,1,0,0)"><svg width="131.5104" viewBox="3.05 -35 97.15 35.6" height="48.19115018013382" data-palette-color="#96a2fb"><path d="M15.9 0L3.05 0 3.05-35 15.9-35Q21.45-35 25.53-32.75 29.6-30.5 31.88-26.55 34.15-22.6 34.15-17.5L34.15-17.5Q34.15-12.4 31.88-8.45 29.6-4.5 25.53-2.25 21.45 0 15.9 0L15.9 0ZM11.45-28L11.45-7 15.7-7Q18.6-7 20.88-8.28 23.15-9.55 24.45-11.9 25.75-14.25 25.75-17.5L25.75-17.5Q25.75-20.75 24.45-23.1 23.15-25.45 20.88-26.73 18.6-28 15.7-28L15.7-28 11.45-28ZM62.6 0L47.95 0Q45 0 42.6-1.38 40.2-2.75 38.77-5.08 37.35-7.4 37.35-10.35L37.35-10.35Q37.35-12.55 38.32-14.48 39.3-16.4 40.95-17.8L40.95-17.8Q39.35-19.15 38.42-21 37.5-22.85 37.5-24.9L37.5-24.9Q37.5-27.8 38.9-30.08 40.3-32.35 42.65-33.68 45-35 47.85-35L47.85-35 62.6-35 62.6-27.95 49.15-28Q48.2-28 47.4-27.55 46.6-27.1 46.12-26.35 45.65-25.6 45.65-24.6L45.65-24.6Q45.65-23.65 46.12-22.88 46.6-22.1 47.4-21.68 48.2-21.25 49.15-21.25L49.15-21.25 60.9-21.25 60.9-14.25 49.4-14.25Q48.35-14.25 47.5-13.75 46.65-13.25 46.15-12.45 45.65-11.65 45.65-10.6L45.65-10.6Q45.65-9.6 46.15-8.78 46.65-7.95 47.5-7.5 48.35-7.05 49.4-7.05L49.4-7.05 62.6-7.05 62.6 0ZM82.4 0.6L82.4 0.6Q79.95 0.6 78-0.53 76.05-1.65 75.2-4.05L75.2-4.05 64.55-35 73.6-35 81.7-7.9Q81.8-7.6 81.97-7.45 82.15-7.3 82.4-7.3L82.4-7.3Q82.65-7.3 82.82-7.45 83-7.6 83.1-7.9L83.1-7.9 91.35-35 100.2-35 89.6-4.05Q88.75-1.7 86.8-0.55 84.85 0.6 82.4 0.6Z" opacity="1" transform="matrix(1,0,0,1,0,0)" fill="#ffffff" class="slogan-text-1" data-fill-palette-color="secondary" id="text-1"></path></svg></g></svg></g></svg></g></svg></g><g transform="matrix(1,0,0,1,77.39200000000001,217.47058650024917)"><svg viewBox="0 0 69.21600000000001 35.72429672844854" height="35.72429672844854" width="69.21600000000001"><g><svg xmlns="http://www.w3.org/2000/svg" data-name=" 3" viewBox="0 0 124.00046710122254 64.00007918964249" x="0" y="0" width="69.21600000000001" height="35.72429672844854" class="icon-icon-0" data-fill-palette-color="accent" id="icon-0"><polygon points="40.761 8.433 32.328 0 0 32.328 32.328 64.655 40.761 56.222 16.867 32.328 40.761 8.433" fill="#ffffff" data-fill-palette-color="accent"></polygon><polygon points="92.442 0 84.009 8.433 107.903 32.328 84.009 56.222 92.442 64.655 124.77 32.328 92.442 0" fill="#ffffff" data-fill-palette-color="accent"></polygon><path d="M130.248 144.037a5.963 5.963 0 1 0 5.963 5.963A5.963 5.963 0 0 0 130.248 144.037Z" transform="translate(-87.74023 -117.67254)" fill="#ffffff" data-fill-palette-color="accent"></path><path d="M150.125 144.037a5.963 5.963 0 1 0 5.963 5.963A5.963 5.963 0 0 0 150.125 144.037Z" transform="translate(-87.74023 -117.67254)" fill="#ffffff" data-fill-palette-color="accent"></path><path d="M175.966 150a5.963 5.963 0 1 0-5.964 5.963A5.963 5.963 0 0 0 175.966 150Z" transform="translate(-87.74023 -117.67254)" fill="#ffffff" data-fill-palette-color="accent"></path></svg></g></svg></g><g></g></svg></g></svg></g></svg></g><defs></defs></svg><rect width="320" height="360" fill="none" stroke="none" visibility="hidden"></rect></g></svg></g></svg>